<svg width="25" height="25" viewBox="0 0 25 25" fill="none" xmlns="http://www.w3.org/2000/svg">
<path d="M18.75 12.6562V3.12498C18.75 2.84871 18.6403 2.58376 18.4449 2.38841C18.2496 2.19306 17.9846 2.08331 17.7083 2.08331C17.4321 2.08331 17.1671 2.19306 16.9718 2.38841C16.7764 2.58376 16.6667 2.84871 16.6667 3.12498V12.6562C15.7645 12.9182 14.972 13.4662 14.4083 14.2177C13.8447 14.9692 13.5405 15.8835 13.5417 16.8229C13.5417 18.9583 15.125 22.8646 17.7083 22.8646C20.2917 22.8646 21.875 18.9583 21.875 16.8229C21.8761 15.8835 21.572 14.9692 21.0083 14.2177C20.4447 13.4662 19.6521 12.9182 18.75 12.6562ZM17.7083 20.8333C16.875 20.8333 15.625 18.4687 15.625 16.875C15.5995 16.2954 15.8042 15.7292 16.1945 15.2999C16.5847 14.8706 17.1289 14.613 17.7083 14.5833C18.2878 14.613 18.8319 14.8706 19.2222 15.2999C19.6125 15.7292 19.8172 16.2954 19.7917 16.875C19.7917 18.4687 18.5417 20.8333 17.7083 20.8333ZM10.4167 2.08331C10.1404 2.08331 9.87545 2.19306 9.6801 2.38841C9.48475 2.58376 9.375 2.84871 9.375 3.12498V8.81248L8.33333 9.5104V3.12498C8.33333 2.84871 8.22359 2.58376 8.02824 2.38841C7.83289 2.19306 7.56793 2.08331 7.29167 2.08331C7.0154 2.08331 6.75045 2.19306 6.5551 2.38841C6.35975 2.58376 6.25 2.84871 6.25 3.12498V9.5104L5.20833 8.81248V3.12498C5.20833 2.84871 5.09859 2.58376 4.90324 2.38841C4.70789 2.19306 4.44293 2.08331 4.16667 2.08331C3.8904 2.08331 3.62545 2.19306 3.4301 2.38841C3.23475 2.58376 3.125 2.84871 3.125 3.12498V9.37498C3.12589 9.54655 3.16914 9.71524 3.25092 9.86608C3.33269 10.0169 3.45046 10.1452 3.59375 10.2396L6.25 12.0208V21.875C6.25 22.1512 6.35975 22.4162 6.5551 22.6116C6.75045 22.8069 7.0154 22.9166 7.29167 22.9166C7.56793 22.9166 7.83289 22.8069 8.02824 22.6116C8.22359 22.4162 8.33333 22.1512 8.33333 21.875V12.0208L10.9896 10.2396C11.1329 10.1452 11.2506 10.0169 11.3324 9.86608C11.4142 9.71524 11.4574 9.54655 11.4583 9.37498V3.12498C11.4583 2.84871 11.3486 2.58376 11.1532 2.38841C10.9579 2.19306 10.6929 2.08331 10.4167 2.08331Z" fill="#417FEF"/>
</svg>
