<svg width="25" height="25" viewBox="0 0 25 25" fill="none" xmlns="http://www.w3.org/2000/svg">
<path d="M22.0416 16.8021L19.9583 15.6042L20.8853 15.3542C21.0215 15.3225 21.1499 15.2637 21.2628 15.1813C21.3758 15.0989 21.471 14.9946 21.5428 14.8747C21.6146 14.7547 21.6615 14.6215 21.6807 14.4831C21.7 14.3446 21.6912 14.2037 21.6548 14.0687C21.6184 13.9337 21.5553 13.8074 21.469 13.6974C21.3828 13.5873 21.2754 13.4957 21.153 13.4281C21.0307 13.3604 20.896 13.3181 20.7569 13.3036C20.6179 13.2891 20.4773 13.3028 20.3437 13.3438L17.4062 14.1354L14.5833 12.5L17.4062 10.8646L20.3437 11.6563H20.6145C20.8908 11.6922 21.17 11.6169 21.3907 11.4469C21.6115 11.277 21.7557 11.0263 21.7916 10.75C21.8275 10.4738 21.7522 10.1945 21.5823 9.97379C21.4123 9.75304 21.1616 9.60885 20.8853 9.57294L19.9583 9.37502L22.0416 8.1771C22.1606 8.10871 22.265 8.01754 22.3488 7.9088C22.4325 7.80007 22.4941 7.6759 22.5299 7.54338C22.5657 7.41087 22.575 7.2726 22.5573 7.13647C22.5397 7.00035 22.4954 6.86903 22.427 6.75002C22.3586 6.63101 22.2674 6.52664 22.1587 6.44286C22.05 6.35908 21.9258 6.29754 21.7933 6.26175C21.6608 6.22596 21.5225 6.21663 21.3864 6.23427C21.2503 6.25192 21.1189 6.29621 20.9999 6.3646L18.7499 7.6771L19.0624 6.52085C19.1034 6.38719 19.1171 6.24665 19.1026 6.10761C19.0881 5.96856 19.0458 5.83385 18.9781 5.71151C18.9105 5.58916 18.8189 5.48169 18.7088 5.39549C18.5988 5.30928 18.4725 5.24611 18.3375 5.20974C18.2025 5.17337 18.0616 5.16455 17.9231 5.18379C17.7847 5.20304 17.6515 5.24995 17.5315 5.32175C17.4116 5.39355 17.3073 5.48876 17.2249 5.60171C17.1425 5.71466 17.0837 5.84303 17.052 5.97919L16.1978 9.10419L13.5416 10.6979V7.43752L15.6978 5.28127C15.8919 5.0861 16.0008 4.82209 16.0008 4.5469C16.0008 4.2717 15.8919 4.00769 15.6978 3.81252C15.601 3.71489 15.4858 3.63739 15.3589 3.58451C15.2319 3.53162 15.0958 3.5044 14.9583 3.5044C14.8207 3.5044 14.6846 3.53162 14.5577 3.58451C14.4307 3.63739 14.3155 3.71489 14.2187 3.81252L13.5416 4.4896V2.08335C13.5416 1.80709 13.4318 1.54213 13.2365 1.34678C13.0411 1.15143 12.7762 1.04169 12.4999 1.04169C12.2237 1.04169 11.9587 1.15143 11.7634 1.34678C11.568 1.54213 11.4583 1.80709 11.4583 2.08335V4.65627L10.6145 3.81252C10.5177 3.71489 10.4025 3.63739 10.2755 3.58451C10.1486 3.53162 10.0124 3.5044 9.87493 3.5044C9.73741 3.5044 9.60126 3.53162 9.47433 3.58451C9.34739 3.63739 9.23218 3.71489 9.13534 3.81252C8.94133 4.00769 8.83243 4.2717 8.83243 4.5469C8.83243 4.82209 8.94133 5.0861 9.13534 5.28127L11.4583 7.60419V10.7292L8.78118 9.14585L7.92701 6.02085C7.89529 5.8847 7.83649 5.75633 7.75411 5.64338C7.67172 5.53043 7.56745 5.43522 7.4475 5.36342C7.32755 5.29162 7.19437 5.2447 7.0559 5.22546C6.91743 5.20622 6.7765 5.21504 6.64152 5.25141C6.50653 5.28778 6.38025 5.35095 6.27019 5.43715C6.16013 5.52336 6.06855 5.63083 6.00091 5.75318C5.93326 5.87552 5.89094 6.01023 5.87645 6.14927C5.86197 6.28832 5.87562 6.42886 5.91659 6.56252L6.24993 7.6771L3.99993 6.38544C3.88092 6.31704 3.7496 6.27275 3.61347 6.25511C3.47735 6.23746 3.33908 6.2468 3.20656 6.28259C3.07404 6.31838 2.94987 6.37992 2.84114 6.46369C2.73241 6.54747 2.64124 6.65184 2.57284 6.77085C2.50445 6.88986 2.46016 7.02118 2.44251 7.15731C2.42486 7.29343 2.4342 7.4317 2.46999 7.56422C2.54227 7.83185 2.71791 8.0598 2.95826 8.19794L5.04159 9.37502L4.16659 9.64585C3.89033 9.68177 3.63964 9.82596 3.46969 10.0467C3.29973 10.2675 3.22443 10.5467 3.26034 10.8229C3.29626 11.0992 3.44045 11.3499 3.66119 11.5198C3.88194 11.6898 4.16116 11.7651 4.43743 11.7292H4.70826L7.64576 10.9375L10.4166 12.5L7.59368 14.1354L4.65618 13.3438C4.51834 13.2926 4.37124 13.2712 4.22454 13.2809C4.07783 13.2907 3.93485 13.3313 3.805 13.4003C3.67515 13.4693 3.56137 13.5649 3.47114 13.681C3.38091 13.7971 3.31627 13.931 3.28148 14.0738C3.2467 14.2167 3.24254 14.3653 3.2693 14.5098C3.29605 14.6544 3.35311 14.7917 3.43672 14.9126C3.52032 15.0336 3.62858 15.1354 3.75438 15.2115C3.88018 15.2877 4.02066 15.3363 4.16659 15.3542L5.09368 15.6042L3.01034 16.8021C2.76999 16.9402 2.59435 17.1682 2.52208 17.4358C2.4498 17.7035 2.48679 17.9888 2.62493 18.2292C2.76306 18.4695 2.99101 18.6452 3.25864 18.7175C3.52627 18.7897 3.81166 18.7527 4.05201 18.6146L6.24993 17.3229L5.93743 18.4792C5.89613 18.6125 5.88206 18.7528 5.89605 18.8917C5.91003 19.0306 5.95178 19.1652 6.01883 19.2877C6.08587 19.4101 6.17684 19.5178 6.28633 19.6044C6.39582 19.691 6.52159 19.7547 6.65618 19.7917C6.74616 19.8019 6.83702 19.8019 6.92701 19.7917C7.16218 19.7997 7.39315 19.7279 7.5823 19.588C7.77145 19.448 7.90763 19.2481 7.96868 19.0209L8.82284 15.8959L11.4583 14.3021V17.5625L9.30201 19.7188C9.108 19.9139 8.9991 20.178 8.9991 20.4531C8.9991 20.7283 9.108 20.9923 9.30201 21.1875C9.39848 21.2859 9.51353 21.3642 9.64048 21.4179C9.76744 21.4715 9.90377 21.4994 10.0416 21.5C10.1794 21.4994 10.3157 21.4715 10.4427 21.4179C10.5697 21.3642 10.6847 21.2859 10.7812 21.1875L11.4583 20.5104V22.9167C11.4583 23.193 11.568 23.4579 11.7634 23.6533C11.9587 23.8486 12.2237 23.9584 12.4999 23.9584C12.7762 23.9584 13.0411 23.8486 13.2365 23.6533C13.4318 23.4579 13.5416 23.193 13.5416 22.9167V20.3438L14.3853 21.1875C14.4822 21.2852 14.5974 21.3626 14.7243 21.4155C14.8513 21.4684 14.9874 21.4956 15.1249 21.4956C15.2624 21.4956 15.3986 21.4684 15.5255 21.4155C15.6525 21.3626 15.7677 21.2852 15.8645 21.1875C16.0585 20.9923 16.1674 20.7283 16.1674 20.4531C16.1674 20.178 16.0585 19.9139 15.8645 19.7188L13.5416 17.3959V14.2709L16.2187 15.8229L17.0728 18.9479C17.1339 19.1752 17.2701 19.3751 17.4592 19.515C17.6484 19.655 17.8793 19.7268 18.1145 19.7188C18.2045 19.729 18.2954 19.729 18.3853 19.7188C18.5183 19.6837 18.6431 19.6227 18.7524 19.5392C18.8617 19.4557 18.9533 19.3514 19.0221 19.2322C19.0908 19.1131 19.1353 18.9816 19.153 18.8452C19.1706 18.7088 19.1611 18.5702 19.1249 18.4375L18.7499 17.3229L20.9791 18.6146C21.0981 18.683 21.2294 18.7273 21.3655 18.7449C21.5017 18.7626 21.6399 18.7532 21.7725 18.7175C21.905 18.6817 22.0291 18.6201 22.1379 18.5363C22.2466 18.4526 22.3378 18.3482 22.4062 18.2292C22.4746 18.1102 22.5189 17.9789 22.5365 17.8427C22.5542 17.7066 22.5448 17.5683 22.509 17.4358C22.4732 17.3033 22.4117 17.1791 22.3279 17.0704C22.2441 16.9617 22.1398 16.8705 22.0208 16.8021H22.0416Z" fill="#417FEF"/>
</svg>
