<svg width="117" height="58" viewBox="0 0 117 58" fill="none" xmlns="http://www.w3.org/2000/svg">
<path d="M32.236 27.26V47H26.748V39.076H20.056V47H14.568V27.26H20.056V34.68H26.748V27.26H32.236ZM42.6846 47.196C41.1166 47.196 39.7073 46.8693 38.4566 46.216C37.2246 45.5627 36.2539 44.6293 35.5446 43.416C34.8353 42.2027 34.4806 40.7747 34.4806 39.132C34.4806 37.508 34.8353 36.0893 35.5446 34.876C36.2726 33.6627 37.2526 32.7293 38.4846 32.076C39.7353 31.4227 41.1446 31.096 42.7126 31.096C44.2806 31.096 45.6806 31.4227 46.9126 32.076C48.1633 32.7293 49.1433 33.6627 49.8526 34.876C50.5806 36.0893 50.9446 37.508 50.9446 39.132C50.9446 40.756 50.5806 42.184 49.8526 43.416C49.1433 44.6293 48.1633 45.5627 46.9126 46.216C45.6619 46.8693 44.2526 47.196 42.6846 47.196ZM42.6846 42.436C43.4499 42.436 44.0846 42.156 44.5886 41.596C45.1113 41.0173 45.3726 40.196 45.3726 39.132C45.3726 38.068 45.1113 37.256 44.5886 36.696C44.0846 36.136 43.4593 35.856 42.7126 35.856C41.9659 35.856 41.3406 36.136 40.8366 36.696C40.3326 37.256 40.0806 38.068 40.0806 39.132C40.0806 40.2147 40.3233 41.036 40.8086 41.596C41.2939 42.156 41.9193 42.436 42.6846 42.436ZM73.7014 31.152C75.68 31.152 77.2294 31.7493 78.3494 32.944C79.488 34.1387 80.0574 35.772 80.0574 37.844V47H74.5694V38.572C74.5694 37.732 74.336 37.0787 73.8694 36.612C73.4027 36.1453 72.768 35.912 71.9654 35.912C71.1627 35.912 70.528 36.1453 70.0614 36.612C69.5947 37.0787 69.3614 37.732 69.3614 38.572V47H63.8734V38.572C63.8734 37.732 63.64 37.0787 63.1734 36.612C62.7254 36.1453 62.1 35.912 61.2974 35.912C60.476 35.912 59.832 36.1453 59.3654 36.612C58.8987 37.0787 58.6654 37.732 58.6654 38.572V47H53.1774V31.292H58.6654V33.364C59.1507 32.692 59.776 32.16 60.5414 31.768C61.3254 31.3573 62.2214 31.152 63.2294 31.152C64.3867 31.152 65.4134 31.404 66.3094 31.908C67.224 32.412 67.9427 33.1213 68.4654 34.036C69.0254 33.1773 69.7627 32.4867 70.6774 31.964C71.592 31.4227 72.6 31.152 73.7014 31.152ZM98.0721 38.964C98.0721 39.3933 98.0441 39.8227 97.9881 40.252H87.6001C87.6561 41.1107 87.8894 41.7547 88.3001 42.184C88.7294 42.5947 89.2708 42.8 89.9241 42.8C90.8388 42.8 91.4921 42.3893 91.8841 41.568H97.7361C97.4934 42.6507 97.0174 43.6213 96.3081 44.48C95.6174 45.32 94.7401 45.9827 93.6761 46.468C92.6121 46.9533 91.4361 47.196 90.1481 47.196C88.5988 47.196 87.2174 46.8693 86.0041 46.216C84.8094 45.5627 83.8668 44.6293 83.1761 43.416C82.5041 42.2027 82.1681 40.7747 82.1681 39.132C82.1681 37.4893 82.5041 36.0707 83.1761 34.876C83.8481 33.6627 84.7814 32.7293 85.9761 32.076C87.1894 31.4227 88.5801 31.096 90.1481 31.096C91.6974 31.096 93.0694 31.4133 94.2641 32.048C95.4588 32.6827 96.3921 33.5973 97.0641 34.792C97.7361 35.968 98.0721 37.3587 98.0721 38.964ZM92.4721 37.592C92.4721 36.92 92.2481 36.3973 91.8001 36.024C91.3521 35.632 90.7921 35.436 90.1201 35.436C89.4481 35.436 88.8974 35.6227 88.4681 35.996C88.0388 36.3507 87.7588 36.8827 87.6281 37.592H92.4721ZM107.626 47.196C106.058 47.196 104.649 46.8693 103.398 46.216C102.166 45.5627 101.195 44.6293 100.486 43.416C99.7767 42.2027 99.422 40.7747 99.422 39.132C99.422 37.508 99.7767 36.0893 100.486 34.876C101.214 33.6627 102.194 32.7293 103.426 32.076C104.677 31.4227 106.086 31.096 107.654 31.096C109.222 31.096 110.622 31.4227 111.854 32.076C113.105 32.7293 114.085 33.6627 114.794 34.876C115.522 36.0893 115.886 37.508 115.886 39.132C115.886 40.756 115.522 42.184 114.794 43.416C114.085 44.6293 113.105 45.5627 111.854 46.216C110.603 46.8693 109.194 47.196 107.626 47.196ZM107.626 42.436C108.391 42.436 109.026 42.156 109.53 41.596C110.053 41.0173 110.314 40.196 110.314 39.132C110.314 38.068 110.053 37.256 109.53 36.696C109.026 36.136 108.401 35.856 107.654 35.856C106.907 35.856 106.282 36.136 105.778 36.696C105.274 37.256 105.022 38.068 105.022 39.132C105.022 40.2147 105.265 41.036 105.75 41.596C106.235 42.156 106.861 42.436 107.626 42.436Z" fill="#417FEF"/>
<path d="M24.0185 2.04667L24.0185 2.04669L24.0223 2.04994L37.3001 13.5601C37.3007 13.5605 37.3012 13.561 37.3018 13.5615C37.9484 14.1338 38.4646 14.8348 38.8166 15.6181C39.1006 16.2499 39.2726 16.9238 39.3266 17.6105H35.8699C35.8296 17.4009 35.7643 17.1963 35.6748 17.0011L35.2203 17.2095L35.6748 17.0011C35.5152 16.653 35.2827 16.343 34.993 16.0913L34.9923 16.0907L21.7115 4.59985C21.7114 4.59979 21.7113 4.59973 21.7113 4.59967C21.2159 4.16942 20.58 3.93287 19.9226 3.93287C19.2651 3.93287 18.6293 4.16942 18.1339 4.59967C18.1338 4.59973 18.1338 4.59979 18.1337 4.59985L4.85287 16.0907L4.85212 16.0913C4.56249 16.343 4.32997 16.653 4.17038 17.0011C4.01079 17.3492 3.92789 17.7272 3.9274 18.1098V18.1105V37.2629C3.9274 37.9779 4.21468 38.6624 4.72419 39.1662C5.23351 39.6699 5.92311 39.9518 6.641 39.9518H9.46126V43.3295H6.641C5.01056 43.3295 3.44801 42.689 2.29681 41.5507C1.1458 40.4125 0.50021 38.8701 0.50021 37.2629L0.500226 18.1323L0.500194 18.1283C0.493273 17.2675 0.671885 16.4149 1.02433 15.6273C1.37645 14.8404 1.89411 14.1362 2.54325 13.5617L15.8229 2.04994L15.8229 2.04996L15.8266 2.04667C16.9523 1.05114 18.4104 0.5 19.9226 0.5C21.4347 0.5 22.8929 1.05114 24.0185 2.04667Z" fill="#417FEF" stroke="#417FEF"/>
</svg>
