<svg width="25" height="25" viewBox="0 0 25 25" fill="none" xmlns="http://www.w3.org/2000/svg">
<path d="M18.75 10.4166C19.5741 10.4166 20.3797 10.1723 21.0649 9.71444C21.7501 9.2566 22.2841 8.60585 22.5995 7.8445C22.9149 7.08314 22.9974 6.24536 22.8366 5.4371C22.6758 4.62885 22.279 3.88642 21.6963 3.3037C21.1136 2.72098 20.3711 2.32415 19.5629 2.16338C18.7546 2.0026 17.9168 2.08512 17.1555 2.40048C16.3941 2.71585 15.7434 3.2499 15.2855 3.93511C14.8277 4.62031 14.5833 5.42589 14.5833 6.24998C14.5833 7.35505 15.0223 8.41486 15.8037 9.19626C16.5851 9.97766 17.6449 10.4166 18.75 10.4166ZM18.75 4.16665C19.162 4.16665 19.5648 4.28883 19.9074 4.51775C20.25 4.74667 20.5171 5.07204 20.6747 5.45272C20.8324 5.8334 20.8737 6.25229 20.7933 6.65642C20.7129 7.06055 20.5145 7.43176 20.2231 7.72312C19.9318 8.01448 19.5606 8.2129 19.1564 8.29328C18.7523 8.37367 18.3334 8.33241 17.9527 8.17473C17.5721 8.01705 17.2467 7.75002 17.0178 7.40742C16.7889 7.06482 16.6667 6.66203 16.6667 6.24998C16.6667 5.69745 16.8862 5.16754 17.2769 4.77684C17.6676 4.38614 18.1975 4.16665 18.75 4.16665ZM17.5521 12.9896C17.4587 12.8388 17.3283 12.7144 17.1734 12.6282C17.0184 12.5419 16.844 12.4966 16.6667 12.4966C16.4893 12.4966 16.3149 12.5419 16.16 12.6282C16.005 12.7144 15.8747 12.8388 15.7812 12.9896L14.7396 14.6875L11.3125 8.85415C11.2203 8.69871 11.0892 8.56994 10.9321 8.4805C10.775 8.39107 10.5974 8.34404 10.4167 8.34404C10.2359 8.34404 10.0583 8.39107 9.90122 8.4805C9.74416 8.56994 9.61307 8.69871 9.52083 8.85415L2.22917 21.3541C2.138 21.512 2.08988 21.6911 2.0896 21.8734C2.08932 22.0557 2.13691 22.2349 2.22759 22.3931C2.31827 22.5513 2.44888 22.6829 2.60636 22.7747C2.76385 22.8666 2.94268 22.9156 3.125 22.9166H21.875C22.0611 22.917 22.2439 22.8675 22.4044 22.7733C22.565 22.6791 22.6973 22.5436 22.7877 22.3809C22.8781 22.2182 22.9232 22.0342 22.9184 21.8482C22.9136 21.6621 22.8591 21.4807 22.7604 21.3229L17.5521 12.9896ZM10.8854 20.8333H4.9375L10.4167 11.4583L13.4792 16.6666L12.1771 18.75L10.8854 20.8333ZM13.3333 20.8333L14.8854 18.3646L15.625 17.2604L16.6667 15.5104L20 20.8333H13.3333Z" fill="#417FEF"/>
</svg>
